<?xml version="1.0" standalone="no"?>
<!DOCTYPE svg PUBLIC "-//W3C//DTD SVG 20010904//EN"
 "http://www.w3.org/TR/2001/REC-SVG-20010904/DTD/svg10.dtd">
<svg version="1.0" xmlns="http://www.w3.org/2000/svg"
 width="535.000000pt" height="77.000000pt" viewBox="0 0 535.000000 77.000000"
 preserveAspectRatio="xMidYMid meet">

<g transform="translate(0.000000,77.000000) scale(0.100000,-0.100000)"
fill="#000000" stroke="none">
<path d="M30 375 l0 -365 2650 0 2650 0 0 365 0 365 -2650 0 -2650 0 0 -365z
m4790 155 l0 -90 90 0 90 0 0 -95 0 -95 -90 0 -90 0 0 -60 c0 -58 -1 -60 -22
-55 -74 18 -519 115 -525 115 -4 0 75 83 177 185 l185 185 92 0 93 0 0 -90z
m-3631 -59 c22 -14 4 -33 -20 -20 -27 14 -59 2 -59 -22 0 -14 13 -25 44 -39
54 -23 66 -51 39 -89 -24 -32 -92 -42 -113 -16 -18 22 -5 30 26 16 35 -16 64
-5 64 24 0 17 -9 27 -39 39 -48 19 -65 45 -52 79 5 14 16 27 23 30 21 9 72 7
87 -2z m81 -24 c0 -32 2 -33 30 -29 47 7 60 -11 60 -84 0 -50 -3 -64 -15 -64
-11 0 -15 13 -15 53 0 63 -10 82 -39 72 -18 -5 -21 -14 -21 -66 0 -52 -2 -59
-20 -59 -19 0 -20 7 -20 105 0 98 1 105 20 105 16 0 20 -7 20 -33z m821 23
c24 -13 26 -68 4 -77 -13 -5 -13 -8 5 -20 26 -18 26 -57 0 -83 -15 -15 -33
-20 -75 -20 l-55 0 0 105 0 105 51 0 c28 0 59 -5 70 -10z m424 -3 c26 -20 4
-29 -33 -15 -27 11 -35 10 -59 -8 -22 -17 -29 -30 -31 -67 -5 -70 43 -107 99
-77 27 15 47 1 24 -17 -30 -21 -100 -16 -130 10 -50 43 -42 142 14 172 33 18
92 19 116 2z m235 -92 c0 -98 -1 -105 -20 -105 -19 0 -20 7 -20 105 0 98 1
105 20 105 19 0 20 -7 20 -105z m345 85 c0 -8 -8 -16 -17 -18 -13 -2 -18 3
-18 18 0 15 5 20 18 18 9 -2 17 -10 17 -18z m75 -37 l0 -57 28 27 c15 15 37
27 47 27 16 0 14 -5 -13 -33 l-33 -34 31 -38 c35 -44 35 -45 13 -45 -10 1 -30
17 -45 37 l-28 36 0 -36 c0 -30 -4 -37 -20 -37 -19 0 -20 7 -20 105 0 98 1
105 20 105 18 0 20 -7 20 -57z m320 47 c0 -5 -13 -10 -30 -10 l-30 0 0 -95 c0
-88 -1 -95 -20 -95 -19 0 -20 7 -20 95 l0 95 -35 0 c-19 0 -35 5 -35 10 0 6
35 10 85 10 50 0 85 -4 85 -10z m310 -25 c0 -20 5 -25 25 -25 14 0 25 -4 25
-10 0 -5 -11 -10 -26 -10 -24 0 -25 -2 -22 -52 2 -43 6 -53 20 -53 27 0 26
-20 0 -23 -38 -6 -52 15 -52 73 0 34 -5 55 -12 57 -9 3 -8 9 5 22 9 10 17 24
17 32 0 8 5 14 10 14 6 0 10 -11 10 -25z m-2290 -45 c45 -45 13 -130 -49 -130
-45 0 -73 29 -73 75 0 28 6 44 22 57 29 24 75 23 100 -2z m78 -35 l15 -50 15
53 c10 37 20 52 32 52 13 0 22 -15 32 -52 l15 -53 17 53 c11 32 23 52 33 52 8
0 13 -6 10 -13 -3 -7 -13 -41 -22 -75 -22 -78 -46 -84 -65 -17 -7 25 -16 45
-20 45 -4 0 -13 -20 -20 -45 -19 -68 -41 -60 -68 23 -26 82 -27 84 -6 80 10
-2 23 -23 32 -53z m280 38 c2 -9 -5 -11 -26 -7 -21 4 -31 2 -35 -10 -5 -12 4
-20 34 -32 34 -14 40 -20 37 -43 -4 -30 -41 -47 -82 -37 -39 10 -32 27 10 24
50 -4 56 18 10 37 -20 9 -36 17 -36 19 0 3 -3 11 -6 19 -8 23 25 48 59 45 17
-2 32 -9 35 -15z m319 -28 c10 -25 21 -45 24 -45 4 0 14 20 23 45 10 25 24 45
33 45 17 0 15 -10 -32 -117 -20 -47 -40 -79 -51 -82 -13 -2 -15 1 -9 15 16 41
15 53 -9 108 -30 67 -31 76 -12 76 8 0 22 -20 33 -45z m475 28 c10 -9 18 -27
18 -40 0 -21 -4 -23 -50 -23 -37 0 -50 -4 -50 -15 0 -22 34 -36 72 -28 30 6
32 5 19 -10 -19 -24 -76 -22 -101 3 -12 12 -20 33 -20 55 0 63 67 99 112 58z
m230 0 c10 -9 18 -27 18 -40 0 -21 -4 -23 -50 -23 -36 0 -50 -4 -50 -14 0 -25
27 -38 67 -30 35 6 37 6 24 -9 -17 -21 -70 -22 -99 -1 -27 19 -31 88 -5 116
20 22 70 23 95 1z m138 7 c0 -6 -8 -10 -18 -10 -30 0 -42 -22 -42 -77 0 -40
-4 -53 -15 -53 -12 0 -15 15 -15 74 l0 73 45 1 c25 1 45 -3 45 -8z m60 -65 c0
-60 -3 -75 -15 -75 -12 0 -15 15 -15 75 0 60 3 75 15 75 12 0 15 -15 15 -75z
m500 55 c11 -11 20 -29 20 -40 0 -17 -7 -20 -50 -20 -36 0 -50 -4 -50 -14 0
-24 27 -38 60 -31 17 4 30 2 30 -3 0 -13 -25 -22 -60 -22 -33 0 -70 40 -70 75
0 62 78 97 120 55z m138 2 c3 -8 -6 -12 -29 -10 -43 4 -50 -19 -10 -33 42 -15
55 -40 35 -68 -12 -17 -24 -21 -52 -19 -19 2 -37 9 -40 16 -3 8 6 12 29 10 46
-4 51 23 7 43 -60 26 -44 83 20 77 20 -2 37 -9 40 -16z"/>
<path d="M4639 583 c-1 -18 -3 -21 -6 -10 -7 27 -23 10 -24 -26 -1 -24 -3 -26
-6 -9 -7 37 -23 25 -25 -20 -1 -38 -2 -39 -5 -10 -6 47 -23 29 -25 -26 -1 -37
-2 -40 -5 -14 -7 51 -23 37 -25 -20 -1 -51 -2 -51 -5 -10 -6 58 -23 43 -24
-21 l-2 -52 -7 40 c-7 45 -17 33 -23 -30 l-4 -40 -1 43 c-1 26 -6 41 -12 37
-11 -7 -14 -95 -3 -95 5 0 90 27 190 61 l183 61 0 84 0 84 -85 0 -85 0 -1 -27z"/>
<path d="M4565 347 l-240 -82 320 -3 c176 -1 326 0 333 3 9 3 12 26 10 82 l-3
78 -90 2 c-89 2 -94 0 -330 -80z"/>
<path d="M4407 373 c-11 -10 -8 -63 3 -63 6 0 10 16 10 35 0 36 -2 40 -13 28z"/>
<path d="M4377 353 c-11 -10 -8 -53 3 -53 6 0 10 14 10 30 0 31 -2 35 -13 23z"/>
<path d="M4340 305 c0 -8 5 -15 10 -15 6 0 10 7 10 15 0 8 -4 15 -10 15 -5 0
-10 -7 -10 -15z"/>
<path d="M4315 290 c-3 -5 -1 -10 4 -10 6 0 11 5 11 10 0 6 -2 10 -4 10 -3 0
-8 -4 -11 -10z"/>
<path d="M4365 245 c18 -7 418 -95 432 -95 9 0 13 15 13 50 l0 50 -227 -1
c-126 0 -223 -2 -218 -4z"/>
<path d="M2000 424 c0 -34 1 -35 31 -32 63 6 61 68 -2 68 -27 0 -29 -3 -29
-36z"/>
<path d="M2000 330 c0 -36 3 -40 24 -40 41 0 56 11 56 40 0 29 -15 40 -56 40
-21 0 -24 -4 -24 -40z"/>
<path d="M1432 388 c-27 -27 -9 -98 24 -98 20 0 44 30 44 55 0 42 -42 69 -68
43z"/>
<path d="M2592 388 c-20 -20 -14 -28 23 -28 37 0 49 22 19 34 -22 8 -28 8 -42
-6z"/>
<path d="M2822 388 c-20 -20 -14 -28 23 -28 19 0 35 4 35 8 0 12 -22 32 -35
32 -6 0 -16 -5 -23 -12z"/>
<path d="M3522 388 c-20 -20 -14 -28 23 -28 19 0 35 4 35 8 0 12 -22 32 -35
32 -6 0 -16 -5 -23 -12z"/>
</g>
</svg>
